<svg xmlns="http://www.w3.org/2000/svg" viewBox="0 0 64 80" x="0px" y="0px"><title>fastfood-drink-food-frenchfries</title><g data-name="EX Line"><path d="M7,11V21H4a1,1,0,0,0-.993,1.117l4,34A1,1,0,0,0,8,57h6.264A6.993,6.993,0,0,0,20,60H44a6.993,6.993,0,0,0,5.736-3H53a1,1,0,0,0,.993-.882l4.666-39.2A3,3,0,0,0,58,11H48V6a1,1,0,0,1,1-1h5V3H49a3,3,0,0,0-3,3v5H36a2.992,2.992,0,0,0-.8,5.879L36.426,34H30.945L32,22.088A1,1,0,0,0,31,21H29V13a1,1,0,0,0-1.243-.97L25,12.72V10a1,1,0,0,0-.757-.97L21,8.22V7a1,1,0,0,0-.757-.97l-4-1A1,1,0,0,0,15,6v6H13V9a1,1,0,0,0-1.447-.895l-4,2A1,1,0,0,0,7,11Zm6,42a6.97,6.97,0,0,0,.295,2H8.889L5.6,27h23.96l-.618,7H20a7.008,7.008,0,0,0-7,7,3,3,0,0,0,2.22,2.884A2.947,2.947,0,0,0,15.78,47a2.947,2.947,0,0,0-.56,3.116A3,3,0,0,0,13,53Zm31,5H28V56H26v2H20a5.006,5.006,0,0,1-5-5,1,1,0,0,1,1-1H36v2h2V52H48a1,1,0,0,1,1,1A5.006,5.006,0,0,1,44,58ZM18,48H35.114l1.356.848a1,1,0,0,0,1.06,0L38.886,48H46a1,1,0,0,1,0,2H18a1,1,0,0,1,0-2Zm-1-3a1,1,0,0,1,1-1H28.714l3.2,2H18A1,1,0,0,1,17,45Zm15.487-1h9.027L37,46.82Zm9.6,2,3.2-2H46a1,1,0,0,1,0,2Zm10.026,9H50.705A6.97,6.97,0,0,0,51,53a3,3,0,0,0-2.22-2.884A2.947,2.947,0,0,0,48.22,47a2.948,2.948,0,0,0,.56-3.116A3,3,0,0,0,51,41a7.008,7.008,0,0,0-7-7H38.431L37.7,23.814l16.585,12.9Zm2.453-20.6L37.512,21.132,37.217,17h5.442l12.8,9.849Zm1.174-9.859L45.941,17H56.635ZM36,15a1,1,0,0,1,0-2H58a1,1,0,0,1,0,2Zm3,21v2h2V36h3a5.006,5.006,0,0,1,5,5,1,1,0,0,1-1,1H29V40H27v2H16a1,1,0,0,1-1-1,5.006,5.006,0,0,1,5-5ZM25,14.781l2-.5V21H25Zm-4-4.5,2,.5V14H21ZM21,16h2v5H21ZM17,7.281l2,.5V21H17ZM13,14h2v7H13Zm16.908,9-.176,2H5.36l-.235-2ZM9,11.618l2-1V21H9Z"/><rect x="19" y="54" width="2" height="2"/><rect x="42" y="54" width="2" height="2"/><rect x="30" y="54" width="2" height="2"/><rect x="43" y="38" width="2" height="2"/><rect x="20" y="38" width="2" height="2"/><rect x="30" y="38" width="2" height="2"/></g><text x="0" y="79" fill="#000000" font-size="5px" font-weight="bold" font-family="'Helvetica Neue', Helvetica, Arial-Unicode, Arial, Sans-serif">Created by Ninejipjip</text><text x="0" y="84" fill="#000000" font-size="5px" font-weight="bold" font-family="'Helvetica Neue', Helvetica, Arial-Unicode, Arial, Sans-serif">from the Noun Project</text></svg>