<svg xmlns="http://www.w3.org/2000/svg" data-name="Layer 1" viewBox="0 0 64 80" x="0px" y="0px"><title>plane</title><path d="M57,39H37.52l2.4-3H25.64l-1.39,3H22.5s-1,0-1.5-.06a18.89,18.89,0,0,1-4.06-.74,19.55,19.55,0,0,1-5.11-2.33L5.82,32A8.3,8.3,0,0,1,2,25V16a3,3,0,0,1,3-3H8.71a3,3,0,0,1,2.73,1.76l3.14,6.9A4,4,0,0,0,18.22,24H52a10,10,0,0,1,8.31,4.44,9.68,9.68,0,0,1,1.11,2.23A9.8,9.8,0,0,1,62,34a5,5,0,0,1-5,5ZM5,15a1,1,0,0,0-1,1v9a6.3,6.3,0,0,0,2.9,5.32l6,3.87a17.66,17.66,0,0,0,4.59,2.09,16.89,16.89,0,0,0,3.66.66c.46,0,1.36.06,1.36.06H23l.85-1.84A2,2,0,0,1,25.64,34H39.92a2,2,0,0,1,1.73,3H57a3,3,0,0,0,3-3,7.67,7.67,0,0,0-.46-2.66,7.8,7.8,0,0,0-.89-1.78A8,8,0,0,0,52,26H18.22a6,6,0,0,1-5.46-3.52l-3.14-6.9A1,1,0,0,0,8.71,15Z"/><path d="M25,32a2,2,0,1,1,2-2A2,2,0,0,1,25,32Zm0-2Z"/><path d="M32,32a2,2,0,1,1,2-2A2,2,0,0,1,32,32Zm0-2Z"/><path d="M39,32a2,2,0,1,1,2-2A2,2,0,0,1,39,32Zm0-2Z"/><path d="M46,32a2,2,0,1,1,2-2A2,2,0,0,1,46,32Zm0-2Z"/><path d="M61.89,32H53a2,2,0,0,1,0-4h7l.3.44a9.68,9.68,0,0,1,1.11,2.23ZM53,30h0Z"/><path d="M25.51,56H17.26a2,2,0,0,1-2-2.44l.07-.2,8.45-18.2A2,2,0,0,1,25.64,34H39.92a2,2,0,0,1,1.56,3.24l-14.4,18A2,2,0,0,1,25.51,56ZM39.92,36H25.64L17.28,54h8.23Z"/><path d="M40.88,26H22.5L15.3,10.44a2,2,0,0,1,2-2.44h8.25a2,2,0,0,1,1.59.79Zm-17.1-2H36.72L25.52,10l-8.24,0Z"/><path d="M19,26H9a1,1,0,0,1,0-2H19a1,1,0,0,1,0,2Z"/><path d="M37,49H29.51l6.41-8H37a4,4,0,1,1,0,8Zm-3.33-2H37a2,2,0,0,0,2-2,2,2,0,0,0-2-2h-.12Z"/><path d="M37,23H35.92l-6.41-8H37a4,4,0,1,1,0,8Zm-.12-2H37a2,2,0,0,0,2-2,2,2,0,0,0-2-2H33.67Z"/><text x="0" y="79" fill="#000000" font-size="5px" font-weight="bold" font-family="'Helvetica Neue', Helvetica, Arial-Unicode, Arial, Sans-serif">Created by tezar tantular</text><text x="0" y="84" fill="#000000" font-size="5px" font-weight="bold" font-family="'Helvetica Neue', Helvetica, Arial-Unicode, Arial, Sans-serif">from the Noun Project</text></svg>