<svg xmlns="http://www.w3.org/2000/svg" xmlns:xlink="http://www.w3.org/1999/xlink" version="1.1" x="0px" y="0px" viewBox="0 0 100 125" enable-background="new 0 0 100 100" xml:space="preserve"><path d="M86,23v-3c0-6.617-5.383-12-12-12s-12,5.383-12,12v3h-9v-3c0-6.617-5.383-12-12-12s-12,5.383-12,12v3H8v6  h21v33c0,1.657,1.343,3,3,3s3-1.343,3-3v-6h27v6c0,1.657,1.343,3,3,3s3-1.343,3-3V29h24v-6H86z M35,20c0-3.309,2.691-6,6-6  s6,2.691,6,6v3H35V20z M35,50v-9h27v9H35z M62,35H35v-6h27V35z M68,20c0-3.309,2.691-6,6-6s6,2.691,6,6v3H68V20z"/><path d="M79.73,69.645c4.211-1.662,9.774-4.166,12.27-4.163v6.054c-2.53,0.578-2.672,0.772-10.066,3.69  c-6.06,2.389-12.929,2.341-18.867,0l-7.336-2.895c-4.526-1.787-9.935-1.787-14.461,0l-7.336,2.895  c-5.997,2.364-12.87,2.364-18.867,0c-1.423-0.562-5.63-2.257-7.066-2.724v-6.107c1.58-0.001,7.717,2.637,9.27,3.25  c4.526,1.787,9.935,1.787,14.461,0l7.336-2.895c5.997-2.364,12.87-2.364,18.867,0l7.336,2.895  C69.796,71.432,75.204,71.432,79.73,69.645z"/><path d="M79.73,84.645c4.211-1.662,9.774-4.166,12.27-4.163v6.054c-2.53,0.578-2.672,0.772-10.066,3.69  c-6.06,2.389-12.929,2.341-18.867,0l-7.336-2.895c-4.526-1.787-9.935-1.787-14.461,0l-7.336,2.895  c-5.997,2.364-12.87,2.364-18.867,0c-1.423-0.562-5.63-2.257-7.066-2.724v-6.107c1.58-0.001,7.717,2.637,9.27,3.25  c4.526,1.787,9.935,1.787,14.461,0l7.336-2.895c5.997-2.364,12.87-2.364,18.867,0l7.336,2.895  C69.796,86.432,75.204,86.432,79.73,84.645z"/><text x="0" y="115" fill="#000000" font-size="5px" font-weight="bold" font-family="'Helvetica Neue', Helvetica, Arial-Unicode, Arial, Sans-serif">Created by Ayub Irawan</text><text x="0" y="120" fill="#000000" font-size="5px" font-weight="bold" font-family="'Helvetica Neue', Helvetica, Arial-Unicode, Arial, Sans-serif">from the Noun Project</text></svg>